<?xml version="1.0" encoding="UTF-8"?>
<svg version="1.1" xmlns="http://www.w3.org/2000/svg" width="1024" height="1024">
<path d="M0 0 C337.92 0 675.84 0 1024 0 C1024 337.92 1024 675.84 1024 1024 C686.08 1024 348.16 1024 0 1024 C0 686.08 0 348.16 0 0 Z " fill="#FEFEFE" transform="translate(0,0)"/>
<path d="M0 0 C2.07005738 -0.00417962 4.14011247 -0.00966057 6.21016335 -0.01631981 C11.86322769 -0.03071077 17.51614544 -0.02654959 23.16921759 -0.019153 C29.27981764 -0.01440782 35.39038659 -0.02694314 41.50097656 -0.03717041 C52.7686947 -0.05334693 64.03635421 -0.05580922 75.30407726 -0.05086542 C85.71768026 -0.04629894 96.13126602 -0.04691899 106.54486847 -0.05270576 C107.94457883 -0.05346265 109.34428919 -0.05421863 110.74399956 -0.05497371 C112.85354257 -0.05611897 114.96308559 -0.05726886 117.0726286 -0.05843295 C136.67233066 -0.06913002 156.272027 -0.07387144 175.8717308 -0.06596279 C176.60975726 -0.06566562 177.34778373 -0.06536844 178.10817462 -0.06506227 C184.10051307 -0.06261362 190.09285144 -0.06000189 196.08518981 -0.05737813 C219.44990726 -0.04727917 242.81455282 -0.05562767 266.17926025 -0.07887268 C292.46418493 -0.10498099 318.74906633 -0.11778358 345.03400445 -0.11068493 C347.84007533 -0.10996893 350.64614621 -0.10929454 353.4522171 -0.10864449 C354.4885116 -0.10838977 354.4885116 -0.10838977 355.54574134 -0.10812991 C365.94632032 -0.10583291 376.34685896 -0.11377527 386.74742889 -0.12693596 C398.58483775 -0.14188861 410.42216862 -0.14226301 422.2595813 -0.12486505 C428.29334627 -0.11637163 434.32693179 -0.11416503 440.36068726 -0.1295166 C445.89519817 -0.14342304 451.42937689 -0.13852421 456.96386889 -0.11927737 C458.95499613 -0.11553525 460.94615038 -0.11838704 462.93725345 -0.12888902 C500.54128123 -0.31296358 534.3734205 13.79939817 561.32867432 40.07518005 C567.49724255 46.26159945 572.5330004 53.06330782 577.26617432 60.38768005 C577.96484619 61.46404724 578.66351807 62.54041443 579.38336182 63.6493988 C591.72703657 83.94201586 598.46002156 108.10843084 598.39480877 131.86497307 C598.39656181 132.68429558 598.39831484 133.50361808 598.400121 134.34776855 C598.4047644 137.08690939 598.40231977 139.82599676 598.39988708 142.56513977 C598.40175591 144.55149476 598.4040569 146.53784938 598.40675241 148.52420342 C598.41286829 153.97834191 598.41273705 159.43246508 598.41155803 164.88660622 C598.41135396 170.77098451 598.41687346 176.65535788 598.4216156 182.53973389 C598.42992227 194.06840584 598.43267048 205.59707268 598.43322798 217.12574737 C598.43368787 226.50040361 598.43574804 235.87505819 598.4389286 245.2497139 C598.43982619 247.95022237 598.440716 250.65073085 598.44160348 253.35123932 C598.44182453 254.02264676 598.44204558 254.6940542 598.44227332 255.38580732 C598.44842698 274.26995535 598.45237396 293.1541028 598.45193005 312.03825188 C598.45191447 312.75009132 598.45189889 313.46193077 598.45188284 314.1953411 C598.45179973 317.80304447 598.45170069 321.41074783 598.45159813 325.0184512 C598.45156821 326.09315558 598.45156821 326.09315558 598.45153769 327.18957116 C598.45149725 328.63844924 598.45145545 330.08732731 598.4514123 331.53620539 C598.45080003 354.06059664 598.45829746 376.58497281 598.47198486 399.10935974 C598.48736628 424.4317523 598.49594979 449.75413496 598.49502164 475.07653248 C598.49494701 477.78018451 598.49489831 480.48383653 598.49486732 483.18748856 C598.49484984 484.18600265 598.49484984 484.18600265 598.49483201 485.20468875 C598.49480321 495.22960792 598.50013697 505.25451469 598.50819969 515.27943039 C598.51732064 526.6932178 598.51946696 538.10698052 598.51269027 549.52077 C598.50943272 555.33963847 598.5093406 561.15845961 598.51804352 566.97732353 C598.52594367 572.31459479 598.52444139 577.65178148 598.51575939 582.98905076 C598.51423207 584.90971175 598.51601123 586.83037917 598.52161946 588.75103258 C598.56296901 603.92947832 598.20839256 619.37693677 594.01617432 634.07518005 C593.79928955 634.85933289 593.58240479 635.64348572 593.35894775 636.45140076 C587.92112209 655.50119473 578.90954748 672.19960263 566.26617432 687.38768005 C565.52496338 688.28228943 564.78375244 689.1768988 564.02008057 690.09861755 C542.61801324 714.89602176 510.50162153 729.81694277 478.26617432 733.38768005 C471.31532044 733.87179808 464.34955452 733.79459358 457.38591003 733.76863098 C455.33658731 733.77209558 453.28726645 733.77686549 451.23794943 733.78281271 C445.65620589 733.79524205 440.07461784 733.78918937 434.49287403 733.77985406 C428.45394371 733.77303064 422.41503902 733.78356101 416.37611389 733.79179382 C405.24680896 733.80433087 394.11754641 733.80328989 382.98824122 733.79505942 C372.70484338 733.78749247 362.42146349 733.78555207 352.13806343 733.78912735 C351.11217808 733.78947108 351.11217808 733.78947108 350.06556777 733.78982176 C347.28883665 733.79075588 344.51210554 733.79171109 341.73537444 733.79270105 C315.72470827 733.8018637 289.71407328 733.7935803 263.70341192 733.77741036 C240.62690391 733.76317354 217.55044557 733.76445043 194.47393799 733.77879333 C168.5072704 733.79487889 142.54063033 733.8012153 116.57395846 733.79195654 C113.80279546 733.79099449 111.03163245 733.79005596 108.26046944 733.78912735 C107.57821 733.78889012 106.89595056 733.78865289 106.19301659 733.78840846 C95.91886624 733.78500514 85.64473588 733.78896983 75.3705883 733.79656601 C63.68178931 733.80516538 51.99303756 733.80266625 40.30424374 733.78672378 C34.34566976 733.77886345 28.38719634 733.77571123 22.4286232 733.78567123 C16.96531647 733.79466498 11.50220274 733.78960868 6.03891332 733.77373858 C4.07146531 733.77041052 2.10400071 733.77203984 0.13656353 733.77936594 C-15.54479269 733.83324095 -30.38481895 732.4019386 -45.29632568 727.20018005 C-46.17345215 726.89974792 -47.05057861 726.5993158 -47.95428467 726.28977966 C-83.27328044 713.81046537 -109.6922122 688.08426077 -125.74505615 654.57029724 C-134.81446667 634.55041327 -137.35294938 612.94818651 -137.23503113 591.19171143 C-137.23893624 589.15685966 -137.24458627 587.12201064 -137.25180203 585.08716792 C-137.26640052 579.56388123 -137.25646954 574.04088418 -137.24206531 568.51760733 C-137.23086976 562.5346028 -137.24292618 556.55163609 -137.25190735 550.56863403 C-137.26498361 539.5494006 -137.26010354 528.53025438 -137.24583206 517.51102653 C-137.23273199 507.32956458 -137.22759359 497.14813541 -137.23015022 486.96666527 C-137.23031064 486.28885229 -137.23047105 485.61103932 -137.23063633 484.91268656 C-137.23130001 482.16061097 -137.23200245 479.4085354 -137.23276167 476.65645984 C-137.23977017 450.89239852 -137.22434587 425.12839485 -137.19813821 399.36434821 C-137.17501894 376.51541795 -137.16963956 353.66655101 -137.17987061 330.81761169 C-137.182473 324.96334492 -137.18505812 319.10907814 -137.18746853 313.25481129 C-137.18776598 312.53389532 -137.18806342 311.81297936 -137.18836988 311.07021746 C-137.19599746 291.92841851 -137.18956141 272.78662468 -137.17877251 253.64482802 C-137.1776248 251.58339596 -137.17648163 249.52196391 -137.17534568 247.46053184 C-137.17459044 246.0932694 -137.1738248 244.72600697 -137.17304868 243.35874454 C-137.16740909 233.18599404 -137.16870751 223.01325996 -137.1732769 212.84050941 C-137.17840198 201.26677408 -137.17215863 189.69309927 -137.1523826 178.1193786 C-137.14255079 172.22128949 -137.1373609 166.32329954 -137.14527512 160.42520523 C-137.15238587 155.01499392 -137.1454025 149.60498178 -137.12767149 144.19479652 C-137.12366176 142.24896853 -137.12456754 140.30312207 -137.13119035 138.35730121 C-137.18120001 122.27431431 -136.05067267 106.18048669 -130.67132568 90.88768005 C-130.37532471 90.0273114 -130.07932373 89.16694275 -129.77435303 88.28050232 C-123.00764826 69.42990373 -112.41189631 53.90671705 -98.73382568 39.38768005 C-98.13441162 38.72381287 -97.53499756 38.05994568 -96.91741943 37.3759613 C-71.99395177 10.83758213 -35.38261508 -0.11706496 0 0 Z " fill="#A30082" transform="translate(281.73382568359375,145.61231994628906)"/>
<path d="M0 0 C20.79 0 41.58 0 63 0 C84.12471327 56.28713923 84.12471327 56.28713923 90.875 74.5 C95.29119427 86.40976114 99.71886855 98.31518475 104.16876221 110.21240234 C104.84154404 112.01207661 105.51355626 113.8120388 106.18475342 115.61230469 C107.11453398 118.1056181 108.04713422 120.59785892 108.98046875 123.08984375 C109.25691727 123.8328624 109.53336578 124.57588104 109.81819153 125.34141541 C111.06079233 128.65039894 112.32164207 131.88521415 114 135 C129.09272447 96.43436145 143.98870138 57.80278121 158.56347656 19.03808594 C158.98390228 17.9209169 159.404328 16.80374786 159.8374939 15.65272522 C160.63273054 13.53934173 161.42706127 11.42561708 162.22036743 9.31150818 C162.74912979 7.90663902 162.74912979 7.90663902 163.28857422 6.47338867 C163.59640839 5.65392258 163.90424255 4.83445648 164.22140503 3.99015808 C165 2 165 2 166 0 C185.8 0 205.6 0 226 0 C226.25077444 34.03367334 226.25077444 34.03367334 226.35546875 48.7734375 C226.42656691 58.78028361 226.49805187 68.78712537 226.57275391 78.79394531 C226.89872109 122.53028004 227.06807995 166.26241302 227 210 C211.49 210 195.98 210 180 210 C179.67 165.78 179.34 121.56 179 76 C175.535 85.9 175.535 85.9 172 96 C170.12948755 101.03201481 168.24256173 106.05360909 166.3125 111.0625 C165.77163454 112.47216313 165.23078222 113.88183131 164.68994141 115.29150391 C157.38938404 134.28287104 149.9264225 153.21171761 142.47915649 172.14588928 C140.08070868 178.24509952 137.6899901 184.34723853 135.30859375 190.453125 C134.78473125 191.79445831 134.26080872 193.13576818 133.73681641 194.47705078 C132.81655052 196.83402932 131.89812597 199.19172801 130.98193359 201.55029297 C130.59215332 202.54689941 130.20237305 203.54350586 129.80078125 204.5703125 C129.47247314 205.41352051 129.14416504 206.25672852 128.8059082 207.12548828 C128 209 128 209 127 210 C125.00035018 210.08758003 122.9976389 210.10696576 120.99609375 210.09765625 C119.78115234 210.09443359 118.56621094 210.09121094 117.31445312 210.08789062 C116.03505859 210.07951172 114.75566406 210.07113281 113.4375 210.0625 C112.15423828 210.05798828 110.87097656 210.05347656 109.54882812 210.04882812 C106.36583978 210.03699545 103.18294238 210.02051068 100 210 C99.64510498 209.09499756 99.29020996 208.18999512 98.92456055 207.25756836 C90.45965302 185.68569004 81.86148805 164.17077153 73.15917969 142.69360352 C67.71962849 129.2669043 62.31255886 115.82764912 56.9375 102.375 C56.42475021 101.09172821 56.42475021 101.09172821 55.90164185 99.78253174 C54.39846687 96.01986043 52.8959104 92.25694317 51.39428711 88.49365234 C50.26416402 85.66191335 49.13234111 82.83085279 48 80 C48 122.9 48 165.8 48 210 C32.49 210 16.98 210 1 210 C0.82732175 190.75004959 0.66037088 171.50005647 0.5 152.25 C0.49405146 151.53696559 0.48810292 150.82393118 0.48197412 150.08928967 C0.15991739 111.43442915 -0.09968762 72.78153594 -0.0625 34.125 C-0.06164398 33.22840164 -0.06078796 32.33180328 -0.05990601 31.40803528 C-0.04911582 20.9386524 -0.02639336 10.46936723 0 0 Z " fill="#FEFDFE" transform="translate(582,406)"/>
<path d="M0 0 C114.31695721 0 114.31695721 0 136.6953125 20.46484375 C145.92318285 29.84792293 152.12811195 42.15957491 155 55 C155.18046875 55.721875 155.3609375 56.44375 155.546875 57.1875 C158.46867756 75.32282623 155.24156898 93.67796767 145 109 C142.20996792 112.57284683 139.22904421 115.82149736 136 119 C135.35160156 119.64710938 134.70320312 120.29421875 134.03515625 120.9609375 C128.94573541 125.72771612 123.20740562 128.88488652 117 132 C118.55752235 137.56769484 121.22647227 142.17555578 124.125 147.125 C125.21123017 149.00243487 126.29715118 150.88004863 127.3828125 152.7578125 C127.96579102 153.76231445 128.54876953 154.76681641 129.14941406 155.80175781 C132.45816586 161.52004918 135.72646884 167.26150164 139 173 C140.35374595 175.37263622 141.70787788 177.7450514 143.0625 180.1171875 C143.55796829 180.98485748 143.55796829 180.98485748 144.06344604 181.87005615 C146.26035019 185.71411422 148.47070183 189.55019878 150.6875 193.3828125 C151.24953125 194.35734375 151.8115625 195.331875 152.390625 196.3359375 C153.43917511 198.15308503 154.49109461 199.96829378 155.546875 201.78125 C156.00578125 202.57789063 156.4646875 203.37453125 156.9375 204.1953125 C157.33839844 204.88641113 157.73929688 205.57750977 158.15234375 206.28955078 C159 208 159 208 159 210 C151.70487782 210.22847266 144.41067925 210.3859144 137.11279297 210.49438477 C134.63132251 210.53960555 132.15009133 210.60099528 129.66943359 210.67895508 C126.09933501 210.78833135 122.53240742 210.8392093 118.9609375 210.87890625 C117.85446869 210.92535782 116.74799988 210.97180939 115.60800171 211.01966858 C108.08021688 211.02458603 108.08021688 211.02458603 105.04597473 208.14660645 C103.47411704 205.83118462 102.21231077 203.51994952 101 201 C100.08335571 199.44804932 100.08335571 199.44804932 99.14819336 197.86474609 C98.63393799 196.92711426 98.11968262 195.98948242 97.58984375 195.0234375 C96.99872803 193.95158203 96.4076123 192.87972656 95.79858398 191.77539062 C95.18442627 190.65326172 94.57026855 189.53113281 93.9375 188.375 C92.61638046 185.97557022 91.29247267 183.57768191 89.96875 181.1796875 C89.63729477 180.57835999 89.30583954 179.97703247 88.96434021 179.35748291 C85.16160614 172.46503829 81.27854632 165.61832293 77.38842773 158.77490234 C75.91957445 156.18661249 74.45738083 153.59476627 73 151 C72.43812988 150.00097656 71.87625977 149.00195312 71.29736328 147.97265625 C70.74677246 146.98136719 70.19618164 145.99007812 69.62890625 144.96875 C69.12560791 144.06576172 68.62230957 143.16277344 68.10375977 142.23242188 C67 140 67 140 67 138 C60.73 138 54.46 138 48 138 C48 161.76 48 185.52 48 210 C32.16 210 16.32 210 0 210 C0 140.7 0 71.4 0 0 Z " fill="#FEFDFE" transform="translate(399,406)"/>
<path d="M0 0 C52.8 0 105.6 0 160 0 C160 14.52 160 29.04 160 44 C131.785 44.495 131.785 44.495 103 45 C103 99.45 103 153.9 103 210 C87.16 210 71.32 210 55 210 C54.86778419 194.41013809 54.73706322 178.82026573 54.60884857 163.23037052 C54.54922914 155.98649879 54.48900913 148.7426331 54.42724609 141.4987793 C54.15046847 108.9984446 53.93819453 76.50194973 54 44 C35.52 44 17.04 44 -2 44 C-1.855625 38.781875 -1.71125 33.56375 -1.5625 28.1875 C-1.51939697 26.56481201 -1.47629395 24.94212402 -1.43188477 23.27026367 C-1.39377686 21.95775635 -1.35566895 20.64524902 -1.31640625 19.29296875 C-1.29993042 18.63671509 -1.28345459 17.98046143 -1.26647949 17.30432129 C-1.09075314 11.48220199 -0.53070176 5.83771932 0 0 Z " fill="#FEFEFE" transform="translate(218,406)"/>
<path d="M0 0 C7.30125 -0.0928125 7.30125 -0.0928125 14.75 -0.1875 C16.25916992 -0.21481201 17.76833984 -0.24212402 19.32324219 -0.27026367 C29.49433488 -0.33228253 41.04982325 -0.17454975 49 7 C55.10460725 14.83168101 57.04100124 23.18296299 56 33 C54.52034062 39.67175758 52.3671958 44.79168268 46.7890625 48.921875 C40.00408216 53.01064045 32.03508156 53.12865495 24.31640625 53.09765625 C22.39356812 53.09390991 22.39356812 53.09390991 20.43188477 53.09008789 C18.82498779 53.08098389 17.21809082 53.07187988 15.5625 53.0625 C10.426875 53.041875 5.29125 53.02125 0 53 C0 35.51 0 18.02 0 0 Z " fill="#9C0082" transform="translate(447,449)"/>
<path d="M0 0 C2.06709762 -0.0013104 4.13419474 -0.00394114 6.20128924 -0.0077675 C11.84544753 -0.01443824 17.48943327 -0.00252699 23.1335696 0.01256669 C29.23356716 0.02557225 35.3335557 0.0211344 41.43356323 0.01885986 C51.99029659 0.01728998 62.54698057 0.02656401 73.10369682 0.04357338 C84.1691254 0.0613565 95.23453168 0.07287767 106.29997444 0.07613182 C106.98934404 0.07633804 107.67871365 0.07654426 108.38897323 0.07675673 C111.8902812 0.0777718 115.39158919 0.07867592 118.8928972 0.07953735 C143.65872088 0.08582977 168.42451553 0.10601717 193.19032288 0.13444519 C217.24207912 0.1620216 241.29382741 0.1832611 265.34559631 0.19596863 C266.45869674 0.1965605 266.45869674 0.1965605 267.59428405 0.19716432 C275.04678285 0.20112006 282.49928172 0.20494747 289.95178064 0.2086809 C305.13184548 0.21628846 320.3119098 0.22475222 335.49197388 0.23373413 C336.18984801 0.234146 336.88772215 0.23455787 337.60674398 0.23498222 C384.16790042 0.26255969 430.72903988 0.31015502 477.29017639 0.36076355 C477.29017639 0.69076355 477.29017639 1.02076355 477.29017639 1.36076355 C476.25101792 1.36212008 475.21185945 1.36347661 474.14121133 1.36487424 C428.35566782 1.4247739 382.57012846 1.48713404 336.78460693 1.56208801 C336.09170635 1.56322164 335.39880576 1.56435526 334.68490819 1.56552324 C319.62721339 1.59017325 304.56951936 1.61526606 289.51182606 1.64081516 C282.127803 1.65334129 274.74377978 1.66576954 267.35975647 1.67814636 C266.62494766 1.67937969 265.89013885 1.68061301 265.13306311 1.68188371 C241.30512777 1.72183132 217.47718867 1.755313 193.64923908 1.78545046 C169.16800895 1.81644826 144.68679723 1.85395157 120.20558995 1.89966967 C116.74976341 1.90612031 113.29393673 1.91249638 109.83810997 1.91882706 C109.15793705 1.92007536 108.47776413 1.92132367 107.77697991 1.9226098 C96.81709796 1.94253228 85.85721805 1.95557335 74.89732346 1.96605683 C63.88558109 1.97673618 52.87386591 1.994789 41.862146 2.01993059 C35.89305796 2.03334159 29.92401038 2.0434676 23.95490646 2.04497719 C18.49523798 2.04642853 13.03566704 2.05697426 7.57602849 2.07489796 C5.59614655 2.07976653 3.61625287 2.08123485 1.63636617 2.07904236 C-1.04615176 2.07655846 -3.72835613 2.0862352 -6.41083813 2.09905052 C-7.18704102 2.09540084 -7.9632439 2.09175116 -8.76296809 2.08799088 C-12.89419251 2.12217186 -15.96508882 2.64192145 -19.70982361 4.36076355 C-23.08237959 4.85835378 -26.43675604 5.23392656 -29.82701111 5.57170105 C-34.90508907 6.12741524 -39.0207263 6.67166624 -42.70982361 10.36076355 C-43.69982361 10.36076355 -44.68982361 10.36076355 -45.70982361 10.36076355 C-50.74949085 11.26070413 -55.37281321 13.6791504 -59.89732361 15.98576355 C-62.70982361 17.36076355 -62.70982361 17.36076355 -64.83482361 17.79826355 C-66.944757 18.26975332 -66.944757 18.26975332 -68.77232361 20.42326355 C-69.41169861 21.06263855 -70.05107361 21.70201355 -70.70982361 22.36076355 C-71.69982361 22.36076355 -72.68982361 22.36076355 -73.70982361 22.36076355 C-75.06415036 23.67276759 -76.39715843 25.00707759 -77.70982361 26.36076355 C-78.69982361 26.69076355 -79.68982361 27.02076355 -80.70982361 27.36076355 C-81.16357361 28.02076355 -81.61732361 28.68076355 -82.08482361 29.36076355 C-84.1339151 31.88272231 -85.55212468 32.01939069 -88.70982361 32.36076355 C-88.70982361 33.02076355 -88.70982361 33.68076355 -88.70982361 34.36076355 C-89.36982361 34.36076355 -90.02982361 34.36076355 -90.70982361 34.36076355 C-90.95732361 35.00013855 -91.20482361 35.63951355 -91.45982361 36.29826355 C-92.07857361 37.31920105 -92.07857361 37.31920105 -92.70982361 38.36076355 C-93.36982361 38.50513855 -94.02982361 38.64951355 -94.70982361 38.79826355 C-95.36982361 38.98388855 -96.02982361 39.16951355 -96.70982361 39.36076355 C-97.14294861 40.47451355 -97.14294861 40.47451355 -97.58482361 41.61076355 C-99.09742893 45.30824321 -101.67192021 46.83995009 -104.70982361 49.36076355 C-105.34274743 51.473567 -105.34274743 51.473567 -105.70982361 53.36076355 C-106.32857361 53.64951355 -106.94732361 53.93826355 -107.58482361 54.23576355 C-110.68087107 55.8748475 -111.30505242 58.23195499 -112.70982361 61.36076355 C-113.36982361 62.35076355 -114.02982361 63.34076355 -114.70982361 64.36076355 C-115.36982361 64.36076355 -116.02982361 64.36076355 -116.70982361 64.36076355 C-116.83357361 65.14451355 -116.95732361 65.92826355 -117.08482361 66.73576355 C-117.70982361 69.36076355 -117.70982361 69.36076355 -119.70982361 71.36076355 C-120.44985104 73.24446975 -121.18212894 75.1317589 -121.86607361 77.0365448 C-122.72276976 79.39642539 -123.64329417 81.72101538 -124.58482361 84.04826355 C-127.03073823 90.12512895 -129.3699089 96.24246198 -131.70982361 102.36076355 C-131.04982361 102.36076355 -130.38982361 102.36076355 -129.70982361 102.36076355 C-130.01919861 103.41263855 -130.32857361 104.46451355 -130.64732361 105.54826355 C-132.08404118 110.70354424 -132.8963313 115.66893855 -133.42857361 120.9818573 C-133.62952194 122.68154524 -133.90187986 124.37339862 -134.22080231 126.05494785 C-134.75017536 129.633544 -134.82601373 133.01495084 -134.81541443 136.63272095 C-134.81477005 137.35377484 -134.81412568 138.07482874 -134.81346178 138.81773275 C-134.81134306 140.41113315 -134.80686118 142.00453168 -134.80034828 143.59792018 C-134.78948838 146.26475922 -134.78481722 148.93155495 -134.78140259 151.59841347 C-134.77557465 155.62615542 -134.7670148 159.65387944 -134.75656128 163.68161201 C-134.72695655 175.50025923 -134.72118449 187.31894096 -134.71372986 199.13761902 C-134.71276455 200.47781361 -134.71179396 201.81800819 -134.71081829 203.15820277 C-134.68392599 241.98259256 -134.80352722 280.80675359 -134.91152954 319.63095522 C-134.92861729 325.77463886 -134.94540314 331.91832331 -134.96214294 338.0620079 C-135.02208869 360.03239331 -135.08357503 382.00277409 -135.14613271 403.97315221 C-135.19229924 420.18886128 -135.23775677 436.40457218 -135.28257751 452.62028503 C-135.28556451 453.70087443 -135.28855151 454.78146382 -135.29162902 455.89479835 C-135.30662306 461.32047214 -135.32160511 466.74614596 -135.33658123 472.17181981 C-135.45914064 516.56813965 -135.58375406 560.96445354 -135.70982361 605.36076355 C-136.03982361 605.36076355 -136.36982361 605.36076355 -136.70982361 605.36076355 C-136.76121312 559.39054129 -136.80897046 513.42031632 -136.83685303 467.45007324 C-136.8372672 466.76897362 -136.83768137 466.08787399 -136.83810809 465.38613499 C-136.84708821 450.58162492 -136.85539856 435.77711455 -136.8630196 420.97260372 C-136.86676139 413.71177216 -136.87065108 406.45094069 -136.87461853 399.19010925 C-136.87501081 398.46759497 -136.87540308 397.74508068 -136.87580725 397.00067203 C-136.88857603 373.61008859 -136.91109853 350.21952699 -136.93871527 326.82895677 C-136.96705913 302.77868585 -136.98549061 278.72842701 -136.99156858 254.67813967 C-136.99243296 251.27599458 -136.99340987 247.87384953 -136.99445534 244.47170448 C-136.99465761 243.80215754 -136.99485988 243.13261059 -136.99506827 242.44277434 C-136.99838563 232.35838615 -137.01033261 222.2740315 -137.02701378 212.18965721 C-137.04594806 200.70140731 -137.05472377 189.21320665 -137.05032774 177.72494098 C-137.04841158 171.86749845 -137.05129121 166.01016532 -137.06744003 160.15274239 C-137.08214722 154.77867906 -137.08270645 149.40479766 -137.07252029 144.03072558 C-137.07126323 142.09769139 -137.07497648 140.16464537 -137.08447316 138.2316341 C-137.15867945 122.17963078 -136.01603629 106.1233382 -130.64732361 90.86076355 C-130.35132263 90.0003949 -130.05532166 89.14002625 -129.75035095 88.25358582 C-122.98364618 69.40298723 -112.38789424 53.87980055 -98.70982361 39.36076355 C-98.11040955 38.69689636 -97.51099548 38.03302917 -96.89341736 37.3490448 C-71.9836929 10.82529931 -35.37048723 -0.16802676 0 0 Z " fill="#5A0067" transform="translate(281.70982360839844,145.6392364501953)"/>
<path d="M0 0 C2.48525919 3.78981729 2.27862167 7.61684827 2.25168228 11.9851017 C2.2560426 13.2071624 2.2560426 13.2071624 2.26049101 14.45391119 C2.26782717 17.2014954 2.26083075 19.94885882 2.25396729 22.69644165 C2.25627033 24.67934515 2.2594458 26.66224779 2.26342177 28.64514863 C2.27180084 34.10834339 2.2676303 39.57146861 2.26144934 45.03466368 C2.25693812 50.92184142 2.26390226 56.80900691 2.26940918 62.69618225 C2.27780571 73.57088197 2.27705327 84.44555771 2.27158624 95.32025871 C2.26655668 105.37434981 2.26524096 115.42843277 2.26763153 125.48252487 C2.2677843 126.14924316 2.26793707 126.81596145 2.26809447 127.50288333 C2.26871716 130.20941133 2.26935396 132.91593932 2.270014 135.62246731 C2.27613659 161.0317158 2.27057959 186.44095014 2.2598202 211.85019645 C2.25034379 234.40078961 2.25116489 256.95136017 2.26074219 279.50195312 C2.27146879 304.84336264 2.27568712 330.18475962 2.26951766 355.52617109 C2.26887626 358.23213219 2.26825058 360.9380933 2.26763153 363.64405441 C2.26747338 364.31031648 2.26731522 364.97657855 2.26715227 365.66303037 C2.26488296 375.69852024 2.26754023 385.73400064 2.27259064 395.76948929 C2.2782155 407.19801544 2.27664995 418.62651413 2.26602915 430.05503716 C2.26079179 435.88197695 2.25868233 441.70887107 2.26532745 447.53581047 C2.2713302 452.88064598 2.26794107 458.22539391 2.25737235 463.57022159 C2.25515635 465.49369266 2.25623359 467.41717127 2.26112393 469.3406374 C2.29673932 484.5259145 1.94410401 499.98264505 -2.25 514.6875 C-2.46688477 515.47165283 -2.68376953 516.25580566 -2.90722656 517.0637207 C-8.44616511 536.46773337 -18.32428742 559.58191617 -35 572 C-35 570.68 -35 569.36 -35 568 C-34.236875 567.566875 -33.47375 567.13375 -32.6875 566.6875 C-28.95710421 564.34515846 -28.46580055 562.08881207 -27 558 C-26.34 558 -25.68 558 -25 558 C-24.67 557.01 -24.34 556.02 -24 555 C-23.566875 554.5875 -23.13375 554.175 -22.6875 553.75 C-20.21091108 551.18168557 -18.66995442 548.12122432 -17 545 C-16.13375 543.39125 -16.13375 543.39125 -15.25 541.75 C-13.79309853 539.04827701 -13.79309853 539.04827701 -14 536 C-13.34 536 -12.68 536 -12 536 C-11.9175 535.154375 -11.835 534.30875 -11.75 533.4375 C-11.01152185 530.05280846 -9.77237877 527.73186393 -7.98828125 524.79296875 C-5.5874791 520.43736326 -4.70143671 515.92629426 -5 511 C-4.34 511 -3.68 511 -3 511 C-3.01160156 510.34773438 -3.02320313 509.69546875 -3.03515625 509.0234375 C-3.0848055 504.21455314 -2.94723381 499.73616903 -2 495 C-2 494.34 -2 493.68 -2 493 C-1.34 493 -0.68 493 0 493 C-0.03029297 492.17693359 -0.06058594 491.35386719 -0.09179688 490.50585938 C-0.9236823 466.50916451 -1.07453307 442.51959031 -1.04749358 418.51136994 C-1.04396906 415.04277353 -1.04232813 411.57417701 -1.04058608 408.10557932 C-1.02026413 369.3098977 -0.9169817 330.51434009 -0.80645713 291.71882969 C-0.77758353 281.56903793 -0.75002332 271.4192427 -0.72249681 261.26944721 C-0.67343123 243.1893947 -0.6234186 225.10934496 -0.57275391 207.02929688 C-0.52372775 189.53320454 -0.47518282 172.03711098 -0.42724609 154.54101562 C-0.4227656 152.90579891 -0.4227656 152.90579891 -0.41819459 151.23754752 C-0.40320299 145.76512379 -0.38822044 140.29270003 -0.37324238 134.82027626 C-0.25022944 89.88018026 -0.12565606 44.94008869 0 0 Z " fill="#D12F83" transform="translate(878,265)"/>
<path d="M0 0 C-1.72669325 2.14407274 -2.63327982 2.93206659 -5.3828125 3.44140625 C-6.28773438 3.48136719 -7.19265625 3.52132812 -8.125 3.5625 C-18.88550236 4.13761148 -18.88550236 4.13761148 -28 9 C-28.99 9 -29.98 9 -31 9 C-36.03966724 9.89994058 -40.6629896 12.31838685 -45.1875 14.625 C-48 16 -48 16 -50.125 16.4375 C-52.23493339 16.90898977 -52.23493339 16.90898977 -54.0625 19.0625 C-54.701875 19.701875 -55.34125 20.34125 -56 21 C-56.99 21 -57.98 21 -59 21 C-60.35432675 22.31200404 -61.68733482 23.64631404 -63 25 C-63.99 25.33 -64.98 25.66 -66 26 C-66.45375 26.66 -66.9075 27.32 -67.375 28 C-69.4240915 30.52195876 -70.84230107 30.65862714 -74 31 C-74 31.66 -74 32.32 -74 33 C-74.66 33 -75.32 33 -76 33 C-76.2475 33.639375 -76.495 34.27875 -76.75 34.9375 C-77.36875 35.9584375 -77.36875 35.9584375 -78 37 C-78.66 37.144375 -79.32 37.28875 -80 37.4375 C-80.66 37.623125 -81.32 37.80875 -82 38 C-82.433125 39.11375 -82.433125 39.11375 -82.875 40.25 C-84.38760532 43.94747966 -86.9620966 45.47918654 -90 48 C-90.63292383 50.11280345 -90.63292383 50.11280345 -91 52 C-91.61875 52.28875 -92.2375 52.5775 -92.875 52.875 C-95.97104746 54.51408395 -96.59522881 56.87119144 -98 60 C-98.66 60.99 -99.32 61.98 -100 63 C-100.66 63 -101.32 63 -102 63 C-102.12375 63.78375 -102.2475 64.5675 -102.375 65.375 C-103 68 -103 68 -105 70 C-105.74002744 71.8837062 -106.47230533 73.77099535 -107.15625 75.67578125 C-108.01294615 78.03566184 -108.93347056 80.36025183 -109.875 82.6875 C-112.32091462 88.7643654 -114.66008529 94.88169843 -117 101 C-116.34 101 -115.68 101 -115 101 C-115.309375 102.051875 -115.61875 103.10375 -115.9375 104.1875 C-117.38867604 109.3946611 -118.18122393 114.41165729 -118.74609375 119.7734375 C-119.06100591 122.53497489 -119.50905529 125.26473661 -120 128 C-120.33 128 -120.66 128 -121 128 C-121.88372235 121.78939569 -122.03004434 116.42893784 -121 110.25 C-120.86537354 109.43853516 -120.73074707 108.62707031 -120.59204102 107.79101562 C-115.68469149 80.70099758 -102.73092703 57.88255726 -84 38 C-83.40058594 37.33613281 -82.80117187 36.67226562 -82.18359375 35.98828125 C-64.72399372 17.39738965 -26.52055601 -5.76012076 0 0 Z " fill="#590783" transform="translate(267,147)"/>
<path d="M0 0 C0.99 0.66 1.98 1.32 3 2 C-15.11404357 25.86056773 -48.8324892 38.78802233 -77.53559637 42.72346711 C-84.88388548 43.54802506 -92.2854922 43.38775379 -99.66845703 43.34057617 C-101.56271348 43.33972736 -103.45697092 43.34020998 -105.35122681 43.34190369 C-110.43273269 43.34275517 -115.51402081 43.32526868 -120.59547663 43.30418181 C-125.92853817 43.28527175 -131.26160615 43.28365339 -136.59469604 43.28010559 C-146.6664452 43.27082684 -156.73809523 43.24627022 -166.80980098 43.21605712 C-178.287616 43.18238238 -189.76543606 43.16599441 -201.24328828 43.15097082 C-224.82891354 43.1197164 -248.41445119 43.06703808 -272 43 C-272 42.67 -272 42.34 -272 42 C-256.60790942 41.86646744 -241.21579451 41.7360428 -225.82365036 41.60884857 C-218.66887975 41.54965992 -211.51411859 41.48962204 -204.359375 41.42724609 C-196.74063849 41.36091687 -189.12188477 41.29696943 -181.50310707 41.23554993 C-180.11496737 41.22434472 -178.72682827 41.21306331 -177.3386898 41.20170593 C-161.13246391 41.06942752 -144.92751473 40.98183304 -128.72070312 41.00390625 C-127.67340932 41.00513221 -127.67340932 41.00513221 -126.60495806 41.00638294 C-119.28384712 41.01512932 -111.962845 41.03211286 -104.64178467 41.06237793 C-102.28104674 41.06835545 -99.92030863 41.07425968 -97.55957031 41.08007812 C-96.50051735 41.0868306 -95.44146439 41.09358307 -94.35031891 41.10054016 C-84.61512895 41.15515897 -84.61512895 41.15515897 -75.1875 39 C-71.34678214 37.79506891 -67.70358373 37.52479602 -63.703125 37.21875 C-60.43792167 36.95451389 -57.23581393 36.50334883 -54 36 C-54 35.34 -54 34.68 -54 34 C-52.02 34 -50.04 34 -48 34 C-48 33.34 -48 32.68 -48 32 C-46.35 32 -44.7 32 -43 32 C-43 31.34 -43 30.68 -43 30 C-41.2097939 29.32942113 -39.41778511 28.6636531 -37.625 28 C-36.62726563 27.62875 -35.62953125 27.2575 -34.6015625 26.875 C-32 26 -32 26 -30 26 C-29.67 25.01 -29.34 24.02 -29 23 C-28.34 23 -27.68 23 -27 23 C-26.566875 22.54625 -26.13375 22.0925 -25.6875 21.625 C-24 20 -24 20 -21.625 19.0625 C-18.59413544 17.83572149 -16.52632824 16.04837425 -14 14 C-13.34 14 -12.68 14 -12 14 C-12 13.34 -12 12.68 -12 12 C-10.8553125 11.3503125 -10.8553125 11.3503125 -9.6875 10.6875 C-6.82704503 9.18171573 -6.82704503 9.18171573 -5.4375 6.3125 C-4.7259375 5.1678125 -4.7259375 5.1678125 -4 4 C-2.68 4 -1.36 4 0 4 C0 2.68 0 1.36 0 0 Z " fill="#C40056" transform="translate(840,836)"/>
<path d="M0 0 C0.33 0 0.66 0 1 0 C1 44.88 1 89.76 1 136 C0.67 136 0.34 136 0 136 C-0.495 80.065 -0.495 80.065 -1 23 C-2.65 23.66 -4.3 24.32 -6 25 C-6.88693303 27.04105639 -6.88693303 27.04105639 -7 29 C-7.66 29 -8.32 29 -9 29 C-8.95875 30.03125 -8.9175 31.0625 -8.875 32.125 C-8.99779604 35.9316772 -9.62350575 38.48229248 -11 42 C-11.309375 42.886875 -11.61875 43.77375 -11.9375 44.6875 C-13 47 -13 47 -14.4296875 48.34375 C-18.19872928 52.31905775 -19.8813433 58.27947783 -20.25 63.625 C-20.12625 64.800625 -20.12625 64.800625 -20 66 C-20.66 66 -21.32 66 -22 66 C-22 66.99 -22 67.98 -22 69 C-22.99 69.495 -22.99 69.495 -24 70 C-25.72664863 73.45329726 -26.21952523 76.15830842 -26 80 C-26.66 80 -27.32 80 -28 80 C-28.495 80.99 -28.495 80.99 -29 82 C-30.4240489 77.72785331 -28.64056722 74.85008601 -27.01953125 70.86328125 C-26.69515579 70.04339722 -26.37078033 69.22351318 -26.03657532 68.37878418 C-25.33548639 66.60928669 -24.63019803 64.84144856 -23.92120361 63.07510376 C-22.05795499 58.43236824 -20.22476082 53.7777579 -18.38671875 49.125 C-18.01538818 48.18767532 -17.64405762 47.25035065 -17.26147461 46.28462219 C-13.78506314 37.49672534 -10.43075337 28.66578202 -7.125 19.8125 C-6.87497223 19.14513824 -6.62494446 18.47777649 -6.36734009 17.79019165 C-4.15581784 11.88646541 -1.96682127 5.99047469 0 0 Z " fill="#B70361" transform="translate(761,480)"/>
<path d="M0 0 C0.99 0.66 1.98 1.32 3 2 C-14.15659015 24.59937048 -46.23165682 37.98640917 -73.5 41.8125 C-76.66419227 42.23088317 -79.82994492 42.62871146 -83 43 C-83.33 42.34 -83.66 41.68 -84 41 C-83.09507812 40.80083984 -83.09507812 40.80083984 -82.171875 40.59765625 C-81.37265625 40.42105469 -80.5734375 40.24445312 -79.75 40.0625 C-78.96109375 39.88847656 -78.1721875 39.71445312 -77.359375 39.53515625 C-75.93741195 39.2126249 -74.51899597 38.87279232 -73.109375 38.5 C-71.02954563 38.00700341 -69.01337525 37.70606537 -66.890625 37.46484375 C-65.75947266 37.33432617 -65.75947266 37.33432617 -64.60546875 37.20117188 C-63.43951172 37.0706543 -63.43951172 37.0706543 -62.25 36.9375 C-61.45722656 36.84662109 -60.66445313 36.75574219 -59.84765625 36.66210938 C-57.89870723 36.4390369 -55.94938838 36.21919979 -54 36 C-54 35.34 -54 34.68 -54 34 C-52.02 34 -50.04 34 -48 34 C-48 33.34 -48 32.68 -48 32 C-46.35 32 -44.7 32 -43 32 C-43 31.34 -43 30.68 -43 30 C-41.2097939 29.32942113 -39.41778511 28.6636531 -37.625 28 C-36.62726562 27.62875 -35.62953125 27.2575 -34.6015625 26.875 C-32 26 -32 26 -30 26 C-29.505 24.515 -29.505 24.515 -29 23 C-28.34 23 -27.68 23 -27 23 C-26.566875 22.54625 -26.13375 22.0925 -25.6875 21.625 C-24 20 -24 20 -21.625 19.0625 C-18.59413544 17.83572149 -16.52632824 16.04837425 -14 14 C-13.34 14 -12.68 14 -12 14 C-12 13.34 -12 12.68 -12 12 C-10.8553125 11.3503125 -10.8553125 11.3503125 -9.6875 10.6875 C-6.82704503 9.18171573 -6.82704503 9.18171573 -5.4375 6.3125 C-4.963125 5.549375 -4.48875 4.78625 -4 4 C-2.68 4 -1.36 4 0 4 C0 2.68 0 1.36 0 0 Z " fill="#D70966" transform="translate(840,836)"/>
<path d="M0 0 C0.66 0 1.32 0 2 0 C3.51913826 4.93719935 2.51398604 9.19579588 1.5 14.125 C1.31985352 15.00373779 1.13970703 15.88247559 0.95410156 16.7878418 C-4.23682689 40.63073935 -15.42761182 61.1494223 -32 79 C-32.33 77.68 -32.66 76.36 -33 75 C-32.236875 74.649375 -31.47375 74.29875 -30.6875 73.9375 C-27.09141882 71.34497636 -26.47896213 69.12552594 -25 65 C-24.34 65 -23.68 65 -23 65 C-22.67 64.01 -22.34 63.02 -22 62 C-21.566875 61.5875 -21.13375 61.175 -20.6875 60.75 C-18.21091108 58.18168557 -16.66995442 55.12122432 -15 52 C-14.4225 50.9275 -13.845 49.855 -13.25 48.75 C-11.79309853 46.04827701 -11.79309853 46.04827701 -12 43 C-11.34 43 -10.68 43 -10 43 C-9.9175 42.154375 -9.835 41.30875 -9.75 40.4375 C-9.01152185 37.05280846 -7.77237877 34.73186393 -5.98828125 31.79296875 C-3.5874791 27.43736326 -2.70143671 22.92629426 -3 18 C-2.34 18 -1.68 18 -1 18 C-1.01160156 17.34773437 -1.02320313 16.69546875 -1.03515625 16.0234375 C-1.0848055 11.21455314 -0.94723381 6.73616903 0 2 C0 1.34 0 0.68 0 0 Z " fill="#DA0765" transform="translate(876,758)"/>
<path d="M0 0 C0.33 0 0.66 0 1 0 C0.3572307 5.35641086 -0.46700272 10.33742577 -3.1875 15.0625 C-4.27962923 17.66680817 -3.74076957 19.33322955 -3 22 C-3.66 22.33 -4.32 22.66 -5 23 C-5 23.99 -5 24.98 -5 26 C-6.32 26.33 -7.64 26.66 -9 27 C-9.04898438 27.58007812 -9.09796875 28.16015625 -9.1484375 28.7578125 C-9.59710642 33.44562912 -10.31148264 37.56764194 -12 42 C-12.33 42.99 -12.66 43.98 -13 45 C-13.66 45 -14.32 45 -15 45 C-15 45.66 -15 46.32 -15 47 C-15.66 47 -16.32 47 -17 47 C-16.3674132 41.67342812 -14.64991895 37.13699235 -12.65625 32.20703125 C-12.32709595 31.37918625 -11.99794189 30.55134125 -11.65881348 29.69841003 C-10.61146025 27.06750453 -9.55598791 24.43995009 -8.5 21.8125 C-7.44580629 19.17365076 -6.39326649 16.53414755 -5.34118652 13.89445496 C-4.68728662 12.2555538 -4.03182402 10.61727508 -3.37463379 8.97969055 C-3.07762573 8.23849472 -2.78061768 7.49729889 -2.47460938 6.73364258 C-2.08275452 5.7581823 -2.08275452 5.7581823 -1.6829834 4.76301575 C-1.07470924 3.19285032 -0.53248633 1.59745899 0 0 Z " fill="#B9086B" transform="translate(730,561)"/>
<path d="M0 0 C0.66 0.33 1.32 0.66 2 1 C0.35 4.96 -1.3 8.92 -3 13 C-2.34 13 -1.68 13 -1 13 C-1.309375 14.051875 -1.61875 15.10375 -1.9375 16.1875 C-3.38867604 21.3946611 -4.18122393 26.41165729 -4.74609375 31.7734375 C-5.06100591 34.53497489 -5.50905529 37.26473661 -6 40 C-6.33 40 -6.66 40 -7 40 C-7.96179067 33.49491583 -7.89051722 28.02060472 -6.75 21.5625 C-6.61231201 20.73645264 -6.47462402 19.91040527 -6.33276367 19.05932617 C-5.3218719 13.23193362 -4.01906825 7.57033724 -2 2 C-1.34 2 -0.68 2 0 2 C0 1.34 0 0.68 0 0 Z " fill="#5D0984" transform="translate(153,235)"/>
<path d="M0 0 C1.23611965 3.70835894 0.60299388 4.71275639 -0.80078125 8.2890625 C-1.20103516 9.31257812 -1.60128906 10.33609375 -2.01367188 11.390625 C-2.44228516 12.45796875 -2.87089844 13.5253125 -3.3125 14.625 C-3.72951172 15.70007813 -4.14652344 16.77515625 -4.57617188 17.8828125 C-7.73721591 25.86860795 -7.73721591 25.86860795 -10 27 C-11.65 22.38 -13.3 17.76 -15 13 C-14.34 13 -13.68 13 -13 13 C-12.67 12.34 -12.34 11.68 -12 11 C-11.34 12.98 -10.68 14.96 -10 17 C-9.34 17 -8.68 17 -8 17 C-7.34 17 -6.68 17 -6 17 C-5.938125 16.236875 -5.87625 15.47375 -5.8125 14.6875 C-4.65512209 9.43478486 -2.32802005 4.8278497 0 0 Z " fill="#B2086C" transform="translate(705,515)"/>
<path d="M0 0 C-1.72669325 2.14407274 -2.63327982 2.93206659 -5.3828125 3.44140625 C-6.28773438 3.48136719 -7.19265625 3.52132812 -8.125 3.5625 C-18.88550236 4.13761148 -18.88550236 4.13761148 -28 9 C-28.66 8.67 -29.32 8.34 -30 8 C-30 7.34 -30 6.68 -30 6 C-29.2575 5.71125 -28.515 5.4225 -27.75 5.125 C-25.12834421 4.11929193 -25.12834421 4.11929193 -23.2890625 3.03515625 C-20.14434998 1.61305929 -17.00336269 1.00368199 -13.625 0.3125 C-12.33851563 0.04050781 -11.05203125 -0.23148438 -9.7265625 -0.51171875 C-6.1374235 -0.98199378 -3.50358431 -0.80810226 0 0 Z " fill="#600486" transform="translate(267,147)"/>
<path d="M0 0 C-0.94875 0.28875 -1.8975 0.5775 -2.875 0.875 C-6.05211578 1.76825109 -6.05211578 1.76825109 -8 4 C-9.39915513 4.50929247 -10.81961765 4.96145408 -12.25 5.375 C-15.39383415 6.35776155 -17.30030792 7.20837693 -20.0625 9.125 C-23.85373484 11.54493713 -26.55005445 11.6931072 -31 12 C-28.28609645 8.70310976 -24.67648573 7.22178062 -20.875 5.5 C-20.20428467 5.19320312 -19.53356934 4.88640625 -18.8425293 4.5703125 C-5.10141844 -1.62883427 -5.10141844 -1.62883427 0 0 Z " fill="#570381" transform="translate(243,152)"/>
<path d="M0 0 C1.93938819 2.90908228 2.96774957 5.40862379 4.125 8.6875 C4.47820313 9.68136719 4.83140625 10.67523438 5.1953125 11.69921875 C5.46085938 12.45847656 5.72640625 13.21773438 6 14 C2.535 15.485 2.535 15.485 -1 17 C-1.02684679 14.35409986 -1.04676357 11.70846904 -1.0625 9.0625 C-1.07087891 8.30775391 -1.07925781 7.55300781 -1.08789062 6.77539062 C-1.09652441 4.85005687 -1.05224333 2.92464419 -1 1 C-0.67 0.67 -0.34 0.34 0 0 Z " fill="#B20579" transform="translate(631,488)"/>
<path d="M0 0 C1.60122557 2.40183836 2.53585561 4.15178154 3.5078125 6.79296875 C3.77207031 7.50517578 4.03632812 8.21738281 4.30859375 8.95117188 C4.71271484 10.0581543 4.71271484 10.0581543 5.125 11.1875 C5.40214844 11.93708984 5.67929687 12.68667969 5.96484375 13.45898438 C6.64670402 15.30470959 7.32381559 17.15218787 8 19 C7.34 19 6.68 19 6 19 C5.71125 18.195625 5.4225 17.39125 5.125 16.5625 C4.26737432 13.8673532 4.26737432 13.8673532 2 13 C2 12.01 2 11.02 2 10 C1.34 10 0.68 10 0 10 C0 6.7 0 3.4 0 0 Z " fill="#B30A72" transform="translate(649,533)"/>
<path d="M0 0 C0.66 0.33 1.32 0.66 2 1 C1.67 1.66 1.34 2.32 1 3 C0.84995027 4.3734635 0.75161994 5.7528526 0.68359375 7.1328125 C0.64169922 7.93847656 0.59980469 8.74414062 0.55664062 9.57421875 C0.49766602 10.83685547 0.49766602 10.83685547 0.4375 12.125 C0.39431641 12.97449219 0.35113281 13.82398438 0.30664062 14.69921875 C0.20045764 16.79928223 0.09971503 18.89961948 0 21 C-0.66 21 -1.32 21 -2 21 C-2.3690205 6.21867882 -2.3690205 6.21867882 0 0 Z " fill="#B10077" transform="translate(631,505)"/>
<path d="M0 0 C0.33 0 0.66 0 1 0 C1 4.62 1 9.24 1 14 C0.34 12.68 -0.32 11.36 -1 10 C-1.99 12.97 -2.98 15.94 -4 19 C-4.66 18.34 -5.32 17.68 -6 17 C-4.02 11.39 -2.04 5.78 0 0 Z " fill="#B50C67" transform="translate(761,480)"/>
<path d="M0 0 C0.33 0 0.66 0 1 0 C2.20642763 4.66485349 3.20762867 9.24577205 4 14 C4.33 14.66 4.66 15.32 5 16 C4.34 16 3.68 16 3 16 C3.33 18.31 3.66 20.62 4 23 C-0.40905061 16.38642409 -0.25338428 7.72822046 0 0 Z " fill="#790271" transform="translate(146,756)"/>
<path d="M0 0 C-1.75864246 2.1793144 -2.69396 2.93686419 -5.48046875 3.51171875 C-6.82044922 3.59873047 -6.82044922 3.59873047 -8.1875 3.6875 C-9.08855469 3.75324219 -9.98960937 3.81898438 -10.91796875 3.88671875 C-11.60503906 3.92410156 -12.29210937 3.96148437 -13 4 C-13 2.66666667 -13 1.33333333 -13 0 C-8.34462607 -0.83796731 -4.62921525 -1.0161692 0 0 Z " fill="#6B1090" transform="translate(267,147)"/>
<path d="M0 0 C0.66 0.99 1.32 1.98 2 3 C1.16041203 5.85048923 0.2475567 8.4527608 -0.875 11.1875 C-1.17019531 11.93708984 -1.46539063 12.68667969 -1.76953125 13.45898438 C-2.5008398 15.31084636 -3.24885755 17.15609381 -4 19 C-4.66 19 -5.32 19 -6 19 C-5.67 16.69 -5.34 14.38 -5 12 C-4.34 12 -3.68 12 -3 12 C-2.01 8.04 -1.02 4.08 0 0 Z " fill="#AE0870" transform="translate(742,415)"/>
<path d="M0 0 C0.99 0.33 1.98 0.66 3 1 C1.02 5.95 -0.96 10.9 -3 16 C-4.31225809 12.06322574 -3.3393954 10.2205738 -2.0625 6.3125 C-1.68222656 5.13300781 -1.30195312 3.95351563 -0.91015625 2.73828125 C-0.60980469 1.83464844 -0.30945313 0.93101562 0 0 Z " fill="#B0076C" transform="translate(715,486)"/>
<path d="M0 0 C5.66710699 1.31793186 7.66437233 3.48709197 11 8 C10.67 8.66 10.34 9.32 10 10 C9.278125 9.21625 8.55625 8.4325 7.8125 7.625 C5.16700959 5.15587562 3.39626389 4.06739722 0 3 C0 2.01 0 1.02 0 0 Z " fill="#8F0874" transform="translate(488,452)"/>
<path d="M0 0 C0.99 0.495 0.99 0.495 2 1 C2.625 4.0625 2.625 4.0625 3 7 C3.99 7.33 4.98 7.66 6 8 C6 10.31 6 12.62 6 15 C3.61874536 12.61874536 2.99813759 10.66142433 1.875 7.5 C1.52179687 6.5203125 1.16859375 5.540625 0.8046875 4.53125 C0 2 0 2 0 0 Z " fill="#A70464" transform="translate(679,497)"/>
<path d="M0 0 C0.33 0 0.66 0 1 0 C1.33 3.63 1.66 7.26 2 11 C1.34 11 0.68 11 0 11 C0 9.35 0 7.7 0 6 C-0.66 6 -1.32 6 -2 6 C-1.125 1.125 -1.125 1.125 0 0 Z " fill="#B2167A" transform="translate(877,254)"/>
<path d="M0 0 C1.98 0.495 1.98 0.495 4 1 C4 2.32 4 3.64 4 5 C3.34 5 2.68 5 2 5 C2 5.99 2 6.98 2 8 C1.01 8.33 0.02 8.66 -1 9 C-0.67 6.03 -0.34 3.06 0 0 Z " fill="#C3037C" transform="translate(723,579)"/>
<path d="M0 0 C0.99 0 1.98 0 3 0 C2.32829194 3.8063457 1.27253436 7.35206816 0 11 C-1.37432457 7.18243176 -0.67975039 3.92744671 0 0 Z " fill="#B10D74" transform="translate(745,405)"/>
<path d="M0 0 C0.66 0 1.32 0 2 0 C1.05066101 3.35433109 0.10251165 6.69246505 -1 10 C-1.66 10 -2.32 10 -3 10 C-2.39009109 6.44219804 -1.4216319 3.3171411 0 0 Z " fill="#C3017C" transform="translate(749,517)"/>
<path d="M0 0 C1.5 1.125 1.5 1.125 3 3 C3.1875 6.1875 3.1875 6.1875 3 9 C2.01 9.495 2.01 9.495 1 10 C0 3.375 0 3.375 0 0 Z " fill="#B7097D" transform="translate(684,506)"/>
<path d="M0 0 C0.66 0.33 1.32 0.66 2 1 C-0.85276137 3.93200474 -3.65079784 6.64315404 -7 9 C-5.44499019 5.18315774 -2.96404505 2.80804268 0 0 Z " fill="#480078" transform="translate(188,180)"/>
<path d="M0 0 C1.33333333 2.66666667 2.66666667 5.33333333 4 8 C1.5625 7.25 1.5625 7.25 -1 6 C-1.8125 3.875 -1.8125 3.875 -2 2 C-1.34 2 -0.68 2 0 2 C0 1.34 0 0.68 0 0 Z " fill="#B80B79" transform="translate(692,526)"/>
<path d="M0 0 C1.32 0.33 2.64 0.66 4 1 C3.34 1 2.68 1 2 1 C2 1.66 2 2.32 2 3 C1.34 3 0.68 3 0 3 C-0.66 4.32 -1.32 5.64 -2 7 C-2 3.89448334 -1.4606285 2.64738916 0 0 Z " fill="#640C8A" transform="translate(191,177)"/>
</svg>
